<svg width="89" height="103" viewBox="0 0 89 103" fill="none" xmlns="http://www.w3.org/2000/svg">
<path fill-rule="evenodd" clip-rule="evenodd" d="M10.0566 2.63014C-2.46841 20.6631 -3.48941 60.3711 8.09359 78.9721C24.0316 104.566 54.2666 109.95 73.1926 90.5651C89.0346 74.3391 93.4436 43.4261 83.2406 20.1301C80.5616 14.0151 79.2406 13.6741 72.6036 17.3831C51.3826 29.2441 30.8016 24.3841 18.5946 4.63014C15.2086 -0.848861 12.8556 -1.39986 10.0566 2.63014ZM27.4696 33.5141C39.4156 40.5151 56.8966 40.8861 71.9516 34.4571C74.1876 33.5021 74.7966 35.5401 75.5066 46.3621C77.3296 74.1061 64.0806 93.0971 43.9086 91.6531C22.0366 90.0891 10.0286 65.5261 14.9516 32.4241L16.0726 24.8861L19.4116 27.8171C21.2486 29.4301 24.8746 31.9931 27.4696 33.5141Z" fill="black"/>
</svg>
